PathFileType	4	(X/Y/Z)	C:/Users/dbak576/Desktop/Duncan Bakke Modelling Files/H22s1/Static_H22s1.trc	
DataRate	CameraRate	NumFrames	NumMarkers	Units	OrigDataRate	OrigDataStartFrame	OrigNumFrames	
200.00	200.00	2	240	mm	200.00	256	37	
Frame#	Time	LFEO			LFEA			LFEL			LFEP			LTIO			LTIA			LTIL			LTIP			PELO			PELA			PELL			PELP			RFEO			RFEA			RFEL			RFEP			RTIO			RTIA			RTIL			RTIP			LFHD			RFHD			LBHD			RBHD			C7			T10			CLAV			STRN			RBack			LASI			RASI			LPSI			RPSI			RACR1			RUA1			RElbow			RElbowM			RFA1			RWRR			RWRU			RCAR			LACR1			LUA1			LElbow			LElbowM			LFA1			LWRR			LWRU			LCAR			RTH1			RTH3			RTH2			RTH4			RLFC			RMFC			RTB1			RTB3			RTB2			RTB4			RLMAL			RMMAL			RCAL			RMT1			RMT5			RToe			LTH1			LTH3			LTH2			LTH4			LLFC			LMFC			LTB1			LTB3			LTB2			LTB4			LLMAL			LMMAL			LCAL			LMT1			LMT5			LToe			CX			LAJC			LFEM1			LFEM10			LFEM11			LFEM12			LFEM13			LFEM14			LFEM15			LFEM16			LFEM2			LFEM3			LFEM4			LFEM5			LFEM6			LFEM7			LFEM8			LFEM9			LFOO1			LFOO2			LFOO3			LFOO4			LFOO5			LFOO6			LHJC			LIC			LIP			LIS			LIT			LKJC			LSI			LTIB1			LTIB10			LTIB11			LTIB12			LTIB13			LTIB14			LTIB15			LTIB16			LTIB2			LTIB3			LTIB4			LTIB5			LTIB6			LTIB7			LTIB8			LTIB9			LeftThighOrigin			LeftTibOrigin			LowerBodyModelVer			LowerTorsoOrigin			MidHJC			MidPelvis			OAnatomy			OCalRig			OHead			OLeftFemur			OLeftFoot			OLeftTibia			OPelvis			ORightFemur			ORightFoot			ORightTibia			OThorax			Oglobal			PELOrigin			RAJC			RFEM1			RFEM10			RFEM11			RFEM12			RFEM13			RFEM14			RFEM15			RFEM16			RFEM2			RFEM3			RFEM4			RFEM5			RFEM6			RFEM7			RFEM8			RFEM9			RFOO1			RFOO2			RFOO3			RFOO4			RFOO5			RFOO6			RHJC			RIC			RIP			RIS			RIT			RKJC			RSI			RTIB1			RTIB10			RTIB11			RTIB12			RTIB13			RTIB14			RTIB15			RTIB16			RTIB2			RTIB3			RTIB4			RTIB5			RTIB6			RTIB7			RTIB8			RTIB9			RightThighOrigin			RightTibOrigin			SACR			SP			ThoraxOrigin			XAnatomy			XCalRig			XHead			XLeftFemur			XLeftFoot			XLeftTibia			XPelvis			XRightFemur			XRightFoot			XRightTibia			XThorax			Xglobal			YAnatomy			YCalRig			YHead			YLeftFemur			YLeftFoot			YLeftTibia			YPelvis			YRightFemur			YRightFoot			YRightTibia			YThorax			Yglobal			ZAnatomy			ZCalRig			ZHead			ZLeftFemur			ZLeftFoot			ZLeftTibia			ZPelvis			ZRightFemur			ZRightFoot			ZRightTibia			ZThorax			Zglobal			avPEL			avTHOR			newLfootmid			newLfootside			newRfootmid			newRfootside			
		X1	Y1	Z1	X2	Y2	Z2	X3	Y3	Z3	X4	Y4	Z4	X5	Y5	Z5	X6	Y6	Z6	X7	Y7	Z7	X8	Y8	Z8	X9	Y9	Z9	X10	Y10	Z10	X11	Y11	Z11	X12	Y12	Z12	X13	Y13	Z13	X14	Y14	Z14	X15	Y15	Z15	X16	Y16	Z16	X17	Y17	Z17	X18	Y18	Z18	X19	Y19	Z19	X20	Y20	Z20	X21	Y21	Z21	X22	Y22	Z22	X23	Y23	Z23	X24	Y24	Z24	X25	Y25	Z25	X26	Y26	Z26	X27	Y27	Z27	X28	Y28	Z28	X29	Y29	Z29	X30	Y30	Z30	X31	Y31	Z31	X32	Y32	Z32	X33	Y33	Z33	X34	Y34	Z34	X35	Y35	Z35	X36	Y36	Z36	X37	Y37	Z37	X38	Y38	Z38	X39	Y39	Z39	X40	Y40	Z40	X41	Y41	Z41	X42	Y42	Z42	X43	Y43	Z43	X44	Y44	Z44	X45	Y45	Z45	X46	Y46	Z46	X47	Y47	Z47	X48	Y48	Z48	X49	Y49	Z49	X50	Y50	Z50	X51	Y51	Z51	X52	Y52	Z52	X53	Y53	Z53	X54	Y54	Z54	X55	Y55	Z55	X56	Y56	Z56	X57	Y57	Z57	X58	Y58	Z58	X59	Y59	Z59	X60	Y60	Z60	X61	Y61	Z61	X62	Y62	Z62	X63	Y63	Z63	X64	Y64	Z64	X65	Y65	Z65	X66	Y66	Z66	X67	Y67	Z67	X68	Y68	Z68	X69	Y69	Z69	X70	Y70	Z70	X71	Y71	Z71	X72	Y72	Z72	X73	Y73	Z73	X74	Y74	Z74	X75	Y75	Z75	X76	Y76	Z76	X77	Y77	Z77	X78	Y78	Z78	X79	Y79	Z79	X80	Y80	Z80	X81	Y81	Z81	X82	Y82	Z82	X83	Y83	Z83	X84	Y84	Z84	X85	Y85	Z85	X86	Y86	Z86	X87	Y87	Z87	X88	Y88	Z88	X89	Y89	Z89	X90	Y90	Z90	X91	Y91	Z91	X92	Y92	Z92	X93	Y93	Z93	X94	Y94	Z94	X95	Y95	Z95	X96	Y96	Z96	X97	Y97	Z97	X98	Y98	Z98	X99	Y99	Z99	X100	Y100	Z100	X101	Y101	Z101	X102	Y102	Z102	X103	Y103	Z103	X104	Y104	Z104	X105	Y105	Z105	X106	Y106	Z106	X107	Y107	Z107	X108	Y108	Z108	X109	Y109	Z109	X110	Y110	Z110	X111	Y111	Z111	X112	Y112	Z112	X113	Y113	Z113	X114	Y114	Z114	X115	Y115	Z115	X116	Y116	Z116	X117	Y117	Z117	X118	Y118	Z118	X119	Y119	Z119	X120	Y120	Z120	X121	Y121	Z121	X122	Y122	Z122	X123	Y123	Z123	X124	Y124	Z124	X125	Y125	Z125	X126	Y126	Z126	X127	Y127	Z127	X128	Y128	Z128	X129	Y129	Z129	X130	Y130	Z130	X131	Y131	Z131	X132	Y132	Z132	X133	Y133	Z133	X134	Y134	Z134	X135	Y135	Z135	X136	Y136	Z136	X137	Y137	Z137	X138	Y138	Z138	X139	Y139	Z139	X140	Y140	Z140	X141	Y141	Z141	X142	Y142	Z142	X143	Y143	Z143	X144	Y144	Z144	X145	Y145	Z145	X146	Y146	Z146	X147	Y147	Z147	X148	Y148	Z148	X149	Y149	Z149	X150	Y150	Z150	X151	Y151	Z151	X152	Y152	Z152	X153	Y153	Z153	X154	Y154	Z154	X155	Y155	Z155	X156	Y156	Z156	X157	Y157	Z157	X158	Y158	Z158	X159	Y159	Z159	X160	Y160	Z160	X161	Y161	Z161	X162	Y162	Z162	X163	Y163	Z163	X164	Y164	Z164	X165	Y165	Z165	X166	Y166	Z166	X167	Y167	Z167	X168	Y168	Z168	X169	Y169	Z169	X170	Y170	Z170	X171	Y171	Z171	X172	Y172	Z172	X173	Y173	Z173	X174	Y174	Z174	X175	Y175	Z175	X176	Y176	Z176	X177	Y177	Z177	X178	Y178	Z178	X179	Y179	Z179	X180	Y180	Z180	X181	Y181	Z181	X182	Y182	Z182	X183	Y183	Z183	X184	Y184	Z184	X185	Y185	Z185	X186	Y186	Z186	X187	Y187	Z187	X188	Y188	Z188	X189	Y189	Z189	X190	Y190	Z190	X191	Y191	Z191	X192	Y192	Z192	X193	Y193	Z193	X194	Y194	Z194	X195	Y195	Z195	X196	Y196	Z196	X197	Y197	Z197	X198	Y198	Z198	X199	Y199	Z199	X200	Y200	Z200	X201	Y201	Z201	X202	Y202	Z202	X203	Y203	Z203	X204	Y204	Z204	X205	Y205	Z205	X206	Y206	Z206	X207	Y207	Z207	X208	Y208	Z208	X209	Y209	Z209	X210	Y210	Z210	X211	Y211	Z211	X212	Y212	Z212	X213	Y213	Z213	X214	Y214	Z214	X215	Y215	Z215	X216	Y216	Z216	X217	Y217	Z217	X218	Y218	Z218	X219	Y219	Z219	X220	Y220	Z220	X221	Y221	Z221	X222	Y222	Z222	X223	Y223	Z223	X224	Y224	Z224	X225	Y225	Z225	X226	Y226	Z226	X227	Y227	Z227	X228	Y228	Z228	X229	Y229	Z229	X230	Y230	Z230	X231	Y231	Z231	X232	Y232	Z232	X233	Y233	Z233	X234	Y234	Z234	X235	Y235	Z235	X236	Y236	Z236	X237	Y237	Z237	X238	Y238	Z238	X239	Y239	Z239	X240	Y240	Z240	

1	0.000	-97.07121	-462.36865	458.11813	220.89128	-462.49353	449.00937	-97.21970	-144.41885	448.57608	-87.96279	-452.82626	775.93744	-156.28154	-481.20029	71.59228	193.02538	-481.82706	25.60653	-164.78468	-123.92337	2.13303	-109.52543	-411.22549	425.79715	-6.45152	-370.87436	882.19415	231.40440	-370.92868	881.54297	-6.40785	-172.66118	881.61462	-5.90872	-370.29495	1080.40649	122.83898	-459.89584	457.70215	456.95883	-459.86838	458.23215	122.81058	-125.77612	458.29092	122.30904	-460.48468	791.82141	172.68784	-462.63989	68.82717	533.53735	-462.57574	121.01433	165.88521	-101.08939	115.41965	120.94591	-509.72632	426.65607	-51.30539	-419.53885	1531.75146	26.65906	-419.81445	1535.95020	-82.33609	-583.17480	1481.65576	40.34967	-591.11420	1479.35889	-14.48619	-574.54327	1345.68481	-7.42531	-565.60608	1081.39954	-12.40100	-433.16470	1298.23523	-12.94088	-360.17914	1196.18591	132.53290	-561.21259	1258.10938	-160.50842	-381.44986	870.59192	147.60538	-360.29883	893.79626	-37.31290	-579.14612	898.59686	57.28415	-582.92548	901.37079	121.68764	-483.92581	1326.07385	257.29453	-431.07541	1310.44922	382.03217	-372.54950	1277.01672	356.55887	-289.13092	1230.59485	484.22379	-306.87921	1265.32568	568.33362	-243.59280	1348.57190	577.60565	-229.23862	1276.60059	624.21527	-235.22078	1314.24683	-165.09634	-481.64188	1312.72388	-292.89719	-397.38641	1275.00159	-366.09753	-309.09641	1242.10925	-334.78326	-253.99524	1213.12512	-463.00751	-238.53957	1250.94434	-549.33893	-137.70889	1321.54700	-557.61957	-149.73863	1249.63794	-605.09900	-128.39540	1287.90247	230.98335	-440.41388	744.53125	203.30095	-459.19659	561.91425	188.25893	-380.27750	656.11926	216.17879	-450.32925	656.38300	200.79253	-451.35941	465.57431	44.88542	-468.43219	449.82999	138.99730	-427.75580	332.45926	166.08459	-430.25952	149.05841	219.27055	-463.67615	251.26587	154.78427	-434.94904	240.76472	216.29550	-467.16541	70.13203	136.80502	-458.92126	68.59728	191.57359	-521.46594	40.19689	164.59474	-365.16293	45.99388	220.15184	-387.82318	37.14089	176.35358	-306.70767	27.59747	-200.42593	-413.08591	759.17932	-174.51219	-425.73764	570.86700	-144.98631	-355.57727	669.87219	-187.71199	-415.76547	665.27460	-177.11890	-465.99573	466.21231	-17.02353	-458.74152	450.02396	-123.54531	-430.06747	347.42978	-140.55016	-441.26736	166.07762	-193.94798	-478.93637	265.83408	-130.82709	-444.47592	256.42273	-188.76491	-494.20389	71.29315	-116.61541	-465.30576	70.72956	-147.84149	-533.04224	33.75249	-150.32938	-377.97736	51.09987	-204.19865	-404.24823	33.81529	-159.36873	-321.39133	25.12149	19.13265	-612.75696	762.95905	-152.69016	-479.75482	71.01136	-92.40108	-451.63455	776.05927	-86.94397	-461.40063	496.12607	-96.03077	-471.37469	496.40533	-106.00651	-462.28549	496.43594	-97.81199	-446.48257	457.91092	-71.65450	-461.18881	457.70496	-95.19234	-493.79031	483.97446	-119.31084	-463.40097	458.47964	-89.02700	-457.92908	769.73004	-91.80845	-464.34338	776.22504	-95.18253	-458.04886	782.55432	-105.90322	-449.61661	734.88129	-95.92749	-458.70581	734.85071	-105.01429	-468.67984	735.12994	-124.17365	-459.72650	757.57721	-96.91971	-452.31143	496.15671	-122.85452	-319.46069	17.27652	-211.42168	-382.99585	-13.50330	-154.71637	-547.47327	-17.61735	-111.21067	-539.21826	-5.16305	-156.31992	-553.60907	77.00179	-165.64058	-508.64777	79.75944	-92.10476	-457.98895	776.14215	-118.17489	-505.50558	938.26672	-71.98827	-466.90170	806.51312	-165.80975	-420.48416	873.22198	-67.50188	-464.02255	744.31720	-97.07121	-462.36862	458.11813	-28.15511	-643.05695	901.76489	-109.82465	-433.64514	450.74289	-130.79224	-471.94128	146.68994	-137.20097	-487.17929	148.29514	-163.11462	-484.95020	151.91824	-161.67958	-441.67722	110.18065	-114.55164	-464.60501	80.68640	-139.85260	-496.18570	109.49273	-188.60393	-494.20917	76.82059	-55.33692	-462.44986	452.12546	-91.25069	-476.90424	457.93469	-127.16444	-491.35858	463.74393	-112.56040	-454.94415	380.83435	-97.42088	-461.50955	378.95401	-103.82961	-476.74756	380.55920	-126.15189	-473.07303	383.60138	-145.93176	-465.37589	148.57030	-173.30815	-398.13361	666.63953	-152.68115	-450.09039	259.78049	24.00000	2.00000	2006.00000	1.76705	-475.95508	891.08899	6.49165	-451.22064	783.56757	1.76705	-475.95508	891.08899	0.00000	0.00000	0.00000	0.00000	0.00000	0.00000	-16.65819	-503.41058	1507.17908	-97.07121	-462.36862	458.11813	-147.84149	-533.04224	33.75249	-152.69016	-479.75482	71.01136	-6.45152	-370.87433	882.19409	122.83897	-459.89581	457.70215	191.57359	-521.46594	40.19689	176.55026	-463.04333	69.36466	-13.44359	-503.85400	1321.95996	0.00000	0.00000	0.00000	-6.45152	-370.87433	882.19409	176.55026	-463.04333	69.36466	104.39600	-437.81476	790.64850	110.75339	-459.10556	497.21606	121.74697	-467.99890	498.21368	130.66434	-456.97961	498.17801	121.10880	-443.30194	456.84109	96.29105	-462.73041	456.41956	124.87925	-491.84802	486.08749	146.06842	-457.41553	458.82440	102.12460	-445.11551	784.16681	105.78014	-451.08984	791.33734	101.41456	-444.49777	797.49841	119.63155	-435.08633	747.78979	110.71418	-446.10562	747.82544	121.70776	-454.99896	748.82306	139.33804	-441.83566	772.59875	119.67076	-448.08627	497.18042	128.81912	-318.29782	5.47469	230.84035	-364.70920	-10.83181	207.16110	-537.10687	-8.93540	161.70555	-536.92279	-1.88132	198.53716	-537.95203	85.49931	198.79088	-491.95477	85.93414	105.08807	-444.45230	790.99292	112.91046	-489.64230	955.66998	82.06863	-456.32620	818.11530	157.70975	-398.27557	897.58655	86.55502	-453.44705	755.91937	122.83897	-459.89581	457.70215	48.87334	-637.76923	907.56598	127.14488	-428.76254	450.12952	154.22070	-461.20343	145.41969	164.59613	-474.11240	146.95937	188.98262	-464.83459	150.25708	175.21873	-423.73331	108.44106	135.77745	-458.88281	79.52329	169.15933	-482.22623	108.07708	215.17462	-467.07797	74.73952	82.59878	-471.45929	452.23022	121.22313	-475.49390	457.60507	159.84749	-479.52853	462.97995	134.79311	-448.82672	380.10745	121.99393	-459.31491	378.42218	132.36935	-472.22388	379.96185	152.89340	-462.54263	382.72208	167.01988	-450.71524	147.10495	207.51440	-426.62933	654.18823	174.78415	-440.56381	244.26118	9.98562	-581.03577	899.98383	5.26254	-418.42105	769.99078	-13.44359	-503.85400	1321.95996	-80.00000	0.00000	0.00000	-80.00000	0.00000	0.00000	-19.54749	-579.59412	1482.93604	-100.79730	-382.46225	457.07590	-227.84149	-533.04224	33.75249	-182.42708	-405.49286	71.94857	-11.41415	-291.30447	875.56036	114.55369	-380.43289	453.57886	111.57359	-521.46594	40.19689	184.79337	-383.47070	69.85982	-13.38842	-424.02130	1327.13110	200.00000	0.00000	0.00000	0.00000	0.00000	80.00000	0.00000	0.00000	80.00000	-18.37133	-527.60486	1583.41357	-95.82216	-461.26715	538.10077	-147.84149	-533.04224	113.75249	-141.32393	-476.20181	150.12004	-12.86617	-364.64664	961.69293	118.58879	-456.19809	537.50354	191.57359	-521.46594	120.19689	165.59009	-462.40106	148.60771	-16.26011	-509.01996	1401.74341	0.00000	200.00000	0.00000	0.00000	80.00000	0.00000	0.00000	80.00000	0.00000	-96.58764	-500.13812	1506.42151	-17.16780	-458.65961	456.81924	-147.84149	-453.04224	33.75249	-79.29721	-450.21606	59.13968	73.13632	-365.41089	888.18793	202.29518	-451.41202	461.54083	191.57359	-441.46594	40.19689	255.36603	-471.27628	80.33247	66.50679	-504.09106	1324.76709	0.00000	0.00000	200.00000	-0.10099	0.10015	0.07719	0.06180	-0.06848	-0.00765	-247.84149	-533.04224	33.75249	-147.84149	-433.04224	33.75249	91.57359	-521.46594	40.19689	191.57359	-421.46594	40.19689 
2	0.005	-97.07426	-462.36295	458.12311	220.86758	-462.48636	449.04636	-97.22239	-144.43381	448.61121	-87.99787	-452.85071	775.92267	-156.31152	-481.20435	71.58621	193.00525	-481.83292	25.56897	-164.82352	-123.91989	2.09135	-109.52391	-411.19315	425.79453	-6.44321	-370.89185	882.19696	231.44611	-370.94516	881.55798	-6.40031	-172.65083	881.62836	-5.91060	-370.32333	1080.43726	122.84795	-459.90237	457.72836	456.92627	-459.87531	458.25186	122.81995	-125.82410	458.30984	122.32449	-460.48392	791.80627	172.67668	-462.63199	68.81030	533.56415	-462.56982	120.99524	165.87798	-101.04312	115.39630	120.93648	-509.71143	426.67825	-51.29555	-419.51483	1531.74426	26.66875	-419.80594	1535.94629	-82.30591	-583.15027	1481.68066	40.37065	-591.08862	1479.37708	-14.48544	-574.53503	1345.69324	-7.46377	-565.81171	1081.44629	-12.40097	-433.15845	1298.24146	-12.98266	-360.16367	1196.18933	132.51678	-561.17865	1258.10498	-160.52101	-381.47870	870.59308	147.63460	-360.30493	893.80078	-37.25954	-579.14563	898.58069	57.30464	-582.91602	901.37048	121.68056	-483.91931	1326.07617	257.28949	-431.09668	1310.47693	381.98364	-372.52353	1277.03198	356.59293	-289.10120	1230.63354	484.22736	-306.88715	1265.35059	568.31775	-243.60179	1348.60266	577.52905	-229.19522	1276.70264	624.30475	-235.17477	1314.29150	-165.11409	-481.63287	1312.72803	-292.91550	-397.40707	1275.03052	-366.06494	-309.10107	1242.15552	-334.79034	-253.98303	1213.19128	-462.99551	-238.53658	1250.96716	-549.32922	-137.76752	1321.63342	-557.86212	-149.92169	1249.69397	-605.16968	-128.42929	1288.00684	230.96162	-440.40277	744.51636	203.27408	-459.17038	561.85254	187.81480	-380.24036	655.74567	216.15121	-450.27325	656.36084	200.81813	-451.37759	465.63467	44.87775	-468.42709	449.82199	138.89674	-427.73447	332.44110	166.07782	-430.26044	149.04939	219.30792	-463.68829	251.27258	154.77534	-434.95432	240.76802	216.30258	-467.16394	70.11473	136.77644	-458.90787	68.58041	191.57179	-521.47101	40.16342	164.60655	-365.14929	45.98373	220.14613	-387.81870	37.13254	176.44766	-306.65445	27.59912	-200.43019	-413.11758	759.16644	-174.52136	-425.73175	570.86078	-144.99454	-355.58896	669.88727	-187.71710	-415.78284	665.27454	-177.11937	-466.01932	466.23431	-17.02913	-458.70648	450.01190	-123.55379	-430.08038	347.41678	-140.52200	-441.30524	166.01563	-193.93993	-478.93451	265.82300	-130.83752	-444.50214	256.40137	-188.82047	-494.21252	71.28671	-116.61917	-465.30624	70.72329	-147.83453	-532.87421	33.73167	-150.33101	-377.98318	51.09579	-204.21281	-404.26859	33.74585	-159.36623	-321.38467	25.11893	19.16062	-612.80066	762.93304	-152.71982	-479.75940	71.00500	-92.40149	-451.66425	776.04382	-86.94723	-461.39569	496.12839	-96.02984	-471.37234	496.40668	-106.00815	-462.28735	496.43854	-97.82066	-446.47818	457.91776	-71.65969	-461.17404	457.70956	-95.18372	-493.78476	483.97406	-119.31199	-463.40317	458.48495	-89.02553	-457.95642	769.71423	-91.80436	-464.37204	776.20813	-95.18032	-458.07986	782.53772	-105.90433	-449.64658	734.86920	-95.92602	-458.73157	734.83728	-105.00863	-468.70822	735.11560	-124.16940	-459.76492	757.56274	-96.92554	-452.31070	496.16025	-122.85973	-319.45367	17.30296	-211.37868	-383.01016	-13.57126	-154.62070	-547.47015	-17.65746	-111.12934	-539.20416	-5.16044	-156.31252	-553.62146	76.95912	-165.64912	-508.66333	79.71505	-92.10292	-458.01816	776.12598	-118.17291	-505.55231	938.27106	-71.98284	-466.93335	806.50073	-165.82042	-420.51898	873.22162	-67.49622	-464.05038	744.29626	-97.07425	-462.36292	458.12311	-28.13129	-643.11499	901.75696	-109.82432	-433.63672	450.74695	-130.81560	-471.94531	146.68497	-137.22678	-487.18286	148.29129	-163.14091	-484.94968	151.91591	-161.70171	-441.67712	110.17458	-114.57699	-464.61423	80.67757	-139.88203	-496.19104	109.48792	-188.63683	-494.20868	76.81715	-55.33866	-462.45065	452.12784	-91.25567	-476.89996	457.94000	-127.17268	-491.34924	463.75217	-112.56730	-454.93942	380.83682	-97.42826	-461.50742	378.95584	-103.83943	-476.74500	380.56216	-126.16187	-473.06683	383.60556	-145.95464	-465.37729	148.56595	-173.31537	-398.14609	666.63818	-152.67191	-450.10672	259.75180	24.00000	2.00000	2006.00000	1.78967	-475.96130	891.08624	6.50687	-451.24255	783.55243	1.78967	-475.96130	891.08624	0.00000	0.00000	0.00000	0.00000	0.00000	0.00000	-16.64051	-503.38992	1507.18701	-97.07425	-462.36292	458.12311	-147.83453	-532.87421	33.73167	-152.71982	-479.75940	71.00500	-6.44321	-370.89182	882.19690	122.84794	-459.90234	457.72833	191.57179	-521.47101	40.16342	176.53952	-463.03589	69.34757	-13.44321	-503.84674	1321.96729	0.00000	0.00000	0.00000	-6.44321	-370.89182	882.19690	176.53952	-463.03589	69.34757	104.42593	-437.83008	790.63477	110.76572	-459.11102	497.23788	121.75629	-468.00537	498.23465	130.67465	-456.98917	498.19891	121.12111	-443.31021	456.86795	96.30271	-462.73148	456.44699	124.88310	-491.85181	486.10916	146.07501	-457.42685	458.84952	102.15314	-445.12927	784.15375	105.80740	-451.10379	791.32306	101.44389	-444.51187	797.48376	119.65825	-435.10367	747.78076	110.73988	-446.11990	747.81653	121.73045	-455.01425	748.81323	139.36208	-441.85663	772.58557	119.68409	-448.09482	497.20218	128.82605	-318.28067	5.47168	230.84660	-364.69275	-10.83705	207.16148	-537.08990	-8.97049	161.70557	-536.90552	-1.91882	198.53246	-537.95044	85.46361	198.78769	-491.95328	85.90608	105.11667	-444.46695	790.97894	112.94379	-489.67197	955.67688	82.09496	-456.34647	818.10461	157.74297	-398.28650	897.58966	86.58159	-453.46350	755.90015	122.84794	-459.90234	457.72833	48.90762	-637.82159	907.55890	127.15695	-428.76596	450.15625	154.21272	-461.19742	145.41190	164.58800	-474.10883	146.95041	188.97813	-464.83273	150.24736	175.21434	-423.72372	108.43005	135.76361	-458.87134	79.51006	169.14836	-482.22195	108.06345	215.16776	-467.07513	74.72031	82.60211	-471.46265	452.25784	121.23035	-475.50186	457.63058	159.85858	-479.54111	463.00330	134.79945	-448.82941	380.12549	121.99778	-459.31729	378.44037	132.37306	-472.22870	379.97885	152.90038	-462.54868	382.73856	167.01439	-450.70953	147.09705	207.35017	-426.60449	654.03821	174.76083	-440.56107	244.25436	10.02255	-581.03082	899.97559	5.27539	-418.43881	769.97552	-13.44321	-503.84674	1321.96729	-80.00000	0.00000	0.00000	-80.00000	0.00000	0.00000	-19.53607	-579.57629	1482.95386	-100.82895	-382.45773	457.09009	-227.83453	-532.87421	33.73167	-182.44559	-405.49295	71.94045	-11.41126	-291.32193	875.56720	114.57764	-380.43774	453.60767	111.57179	-521.47101	40.16342	184.79071	-383.46411	69.84625	-13.39006	-424.01389	1327.13574	200.00000	0.00000	0.00000	0.00000	0.00000	80.00000	0.00000	0.00000	80.00000	-18.35381	-527.57428	1583.42468	-95.82388	-461.27011	538.10590	-147.83453	-532.87421	113.73167	-141.34860	-476.20441	150.11288	-12.85803	-364.66849	961.69611	118.60193	-456.20612	537.53003	191.57179	-521.47101	120.16342	165.58447	-462.39655	148.59137	-16.26378	-509.01010	1401.75073	0.00000	200.00000	0.00000	0.00000	80.00000	0.00000	0.00000	80.00000	0.00000	-96.56973	-500.11154	1506.43079	-17.17219	-458.62515	456.82294	-147.83453	-452.87421	33.73167	-79.32313	-450.23212	59.12782	73.14428	-365.42325	888.19080	202.30594	-451.43384	461.56381	191.57179	-441.47101	40.16342	255.35515	-471.27737	80.30991	66.50703	-504.08197	1324.77856	0.00000	0.00000	200.00000	-0.10099	0.10015	0.07719	0.06180	-0.06848	-0.00765	-247.83453	-532.87421	33.73167	-147.83453	-432.87421	33.73167	91.57179	-521.47101	40.16342	191.57179	-421.47101	40.16342 
